<?xml version="1.0" encoding="UTF-8"?>
<!DOCTYPE svg PUBLIC "-//W3C//DTD SVG 1.1//EN" "http://www.w3.org/Graphics/SVG/1.1/DTD/svg11.dtd">
<!-- Creator: CorelDRAW 2018 (64-Bit) -->
<svg xmlns="http://www.w3.org/2000/svg" xml:space="preserve" width="25.1354mm" height="25.1354mm" version="1.1" style="shape-rendering:geometricPrecision; text-rendering:geometricPrecision; image-rendering:optimizeQuality; fill-rule:evenodd; clip-rule:evenodd"
viewBox="0 0 476.56 476.56"
 xmlns:xlink="http://www.w3.org/1999/xlink">
 <defs>
  <style type="text/css">
   <![CDATA[
    .fil0 {fill:#575445}
    .fil1 {fill:white}
   ]]>
  </style>
 </defs>
 <g id="Layer_x0020_1">
  <metadata id="CorelCorpID_0Corel-Layer"/>
  <g id="_2861794315872">
   <path class="fil0" d="M238.28 0l0 0c131.58,0 238.28,106.7 238.28,238.28l0 0c0,131.58 -106.7,238.28 -238.28,238.28l0 0c-131.58,-0 -238.28,-106.71 -238.28,-238.28l-0 0c0,-131.58 106.71,-238.28 238.28,-238.28z"/>
   <path class="fil1" d="M291.73 250.11l-32.77 0c-8.97,0 -16.26,7.29 -16.26,16.26l0 25.13c0,8.97 7.29,16.26 16.26,16.26l32.77 0c8.97,0 16.26,-7.29 16.26,-16.26l0 -25.13c0,-8.97 -7.29,-16.26 -16.26,-16.26zm4.43 41.39c0,2.46 -2.02,4.44 -4.43,4.44l-32.77 0c-2.46,0 -4.43,-2.02 -4.43,-4.44l0 -25.13c0,-2.46 2.02,-4.43 4.43,-4.43l32.77 0c2.46,0 4.43,2.02 4.43,4.43l0 25.13z"/>
   <path class="fil1" d="M361.55 204.43c0,-1.04 -0.25,-2.02 -0.79,-2.91l-35.87 -63.07c-1.04,-1.82 -3.01,-3.01 -5.12,-3.01l-157.63 0c-2.12,0 -4.09,1.13 -5.12,3.01l-35.82 63.07c-0.49,0.89 -0.79,1.87 -0.79,2.91 0,14.14 8.52,26.26 20.7,31.63l0 104.02c0,3.25 2.66,5.91 5.91,5.91l32.67 0c0.05,0 0.1,0 0.15,0l45.83 0c0.05,0 0.1,0 0.15,0l109.1 0c3.25,0 5.91,-2.66 5.91,-5.91l0 -103.28c0,-0.25 0,-0.44 -0.05,-0.64 12.22,-5.37 20.8,-17.54 20.8,-31.73zm-195.97 -57.11l150.73 0 28.04 49.32 -206.76 0 27.99 -49.32zm126.44 61.1c-1.87,10.64 -11.19,18.72 -22.37,18.72 -11.19,0 -20.5,-8.08 -22.37,-18.72l44.74 0zm-57.31 0c-1.87,10.64 -11.18,18.72 -22.37,18.72 -11.18,0 -20.5,-8.08 -22.42,-18.72l44.79 0zm-102.1 0l44.79 0c-1.87,10.64 -11.24,18.72 -22.42,18.72 -11.19,0.05 -20.5,-8.08 -22.37,-18.72zm87.12 125.75l-34 0 0 -63.81c0,-4.63 3.74,-8.43 8.43,-8.43l17.2 0c4.63,0 8.43,3.74 8.43,8.43l0 63.81 -0.05 0zm109.24 0l-97.42 0 0 -63.81c0,-11.14 -9.07,-20.25 -20.25,-20.25l-17.2 0c-11.14,0 -20.25,9.07 -20.25,20.25l0 63.86 -20.94 0 0 -95.25c0.69,0.05 1.38,0.05 2.07,0.05 11.92,0 22.47,-6.06 28.68,-15.28 6.21,9.21 16.75,15.28 28.68,15.28 11.93,0 22.42,-6.06 28.68,-15.28 6.21,9.21 16.75,15.28 28.63,15.28 11.92,0 22.42,-6.06 28.63,-15.28 6.21,9.21 16.75,15.28 28.68,15.28 0.69,0 1.33,-0.05 2.02,-0.05l0 95.2zm-2.02 -106.98c-11.18,0 -20.5,-8.08 -22.37,-18.72l44.79 0c-1.92,10.59 -11.24,18.72 -22.42,18.72z"/>
  </g>
 </g>
</svg>
