<?xml version="1.0" encoding="UTF-8"?>
<!DOCTYPE svg PUBLIC "-//W3C//DTD SVG 1.1//EN" "http://www.w3.org/Graphics/SVG/1.1/DTD/svg11.dtd">
<!-- Creator: CorelDRAW 2018 (64-Bit) -->
<svg xmlns="http://www.w3.org/2000/svg" xml:space="preserve" width="25.1354mm" height="25.1353mm" version="1.1" style="shape-rendering:geometricPrecision; text-rendering:geometricPrecision; image-rendering:optimizeQuality; fill-rule:evenodd; clip-rule:evenodd"
viewBox="0 0 1104.35 1104.35"
 xmlns:xlink="http://www.w3.org/1999/xlink">
 <defs>
  <style type="text/css">
   <![CDATA[
    .fil0 {fill:#575445}
    .fil1 {fill:white}
   ]]>
  </style>
 </defs>
 <g id="Layer_x0020_1">
  <metadata id="CorelCorpID_0Corel-Layer"/>
  <g id="_2861789393440">
   <path class="fil0" d="M552.17 0l0 0c304.91,0 552.18,247.27 552.18,552.17l0 0c-0,304.9 -247.27,552.17 -552.18,552.17l-0 0c-304.9,-0 -552.17,-247.27 -552.17,-552.18l-0 0c0,-304.9 247.27,-552.17 552.18,-552.17z"/>
   <path class="fil1" d="M442.27 496.47c0,-9.64 -7.89,-17.53 -17.53,-17.53l-140.56 0c-9.64,0 -17.53,7.89 -17.53,17.53 0,9.64 7.89,17.53 17.53,17.53l140.56 0c9.64,0 17.53,-7.89 17.53,-17.53z"/>
   <path class="fil1" d="M826.25 478.94l-140.56 0c-9.64,0 -17.53,7.89 -17.53,17.53 0,9.64 7.89,17.53 17.53,17.53l140.56 0c9.64,0 17.53,-7.89 17.53,-17.53 0,-9.64 -7.74,-17.53 -17.53,-17.53z"/>
   <path class="fil1" d="M555.21 383.53c9.64,0 17.53,-7.89 17.53,-17.53l0 -140.56c0,-9.64 -7.89,-17.53 -17.53,-17.53 -9.64,0 -17.53,7.89 -17.53,17.53l0 140.56c0,9.64 7.89,17.53 17.53,17.53z"/>
   <path class="fil1" d="M647.41 421.81c4.53,0 8.91,-1.75 12.42,-5.11l99.5 -99.5c6.87,-6.87 6.87,-17.97 0,-24.84 -6.87,-6.86 -17.97,-6.86 -24.84,0l-99.5 99.5c-6.87,6.87 -6.87,17.97 0,24.84 3.51,3.36 8.04,5.11 12.42,5.11z"/>
   <path class="fil1" d="M450.6 416.69c3.36,3.36 7.89,5.11 12.42,5.11 4.53,0 8.91,-1.75 12.42,-5.11 6.87,-6.87 6.87,-17.97 0,-24.84l-99.5 -99.5c-6.87,-6.86 -17.97,-6.86 -24.84,0 -6.87,6.87 -6.87,17.97 0,24.84l99.5 99.5z"/>
   <path class="fil1" d="M765.9 607.07c-13.3,-11.4 -30.1,-17.68 -47.19,-17.68l-15.93 0 -57.28 0 -27.18 0 0 -70.86c0,-33.9 -10.08,-58.59 -30.1,-73.35 -31.56,-23.08 -74.37,-10.08 -76.27,-9.49 -7.3,2.34 -12.27,9.06 -12.27,16.66l0 85.48c0,26 -12.42,48.07 -37.11,65.74 -18.7,13.44 -37.84,19.58 -40.33,20.31l-1.75 0.44c-6.57,-7.45 -16.22,-12.13 -27.03,-12.13l-66.62 0c-19.87,0 -36.09,16.22 -36.09,36.09l0 218.58c0,19.87 16.22,36.09 36.09,36.09l66.92 0c8.77,0 16.95,-3.22 23.08,-8.48 13.44,13.15 31.7,21.19 51.43,21.19l66.48 0 6.87 0 136.03 0c21.04,0 39.6,-5.11 53.77,-14.61 18.12,-12.28 29.37,-31.71 32.58,-56.55l27.03 -168.03c4.24,-26.01 -5.4,-52.6 -25.13,-69.4zm-371.12 259.79c0,0.58 -0.44,1.02 -1.02,1.02l-66.92 0c-0.58,0 -1.02,-0.44 -1.02,-1.02l0 -218.58c0,-0.58 0.44,-1.02 1.02,-1.02l66.92 0c0.58,0 1.02,0.44 1.02,1.02l0 218.58zm361.62 -195.79l-27.03 168.32c0,0.14 0,0.44 -0.14,0.73 -1.17,10.08 -4.96,40.62 -51.58,40.62l-136.03 0 -6.87 0 -66.48 0c-18.7,0 -35.07,-14.02 -37.99,-32.58 -0.14,-0.73 -0.29,-1.46 -0.43,-2.04l0 -187.9 1.02 -0.29c0.29,0 0.44,-0.15 0.73,-0.15 1.02,-0.29 25.86,-7.3 50.55,-24.98 34.34,-24.4 52.6,-57.28 52.6,-94.97l0 -71.01c9.64,-1.02 22.93,-0.58 32.72,6.58 10.52,7.74 15.78,22.94 15.78,45l0 88.39c0,9.64 7.89,17.53 17.53,17.53l44.71 0 57.28 0 15.93 0c8.77,0 17.39,3.36 24.4,9.2 10.52,9.06 15.49,23.38 13.3,37.55z"/>
  </g>
 </g>
</svg>
