<?xml version="1.0" encoding="UTF-8"?>
<!DOCTYPE svg PUBLIC "-//W3C//DTD SVG 1.1//EN" "http://www.w3.org/Graphics/SVG/1.1/DTD/svg11.dtd">
<!-- Creator: CorelDRAW 2018 (64-Bit) -->
<svg xmlns="http://www.w3.org/2000/svg" xml:space="preserve" width="25.1354mm" height="25.1354mm" version="1.1" style="shape-rendering:geometricPrecision; text-rendering:geometricPrecision; image-rendering:optimizeQuality; fill-rule:evenodd; clip-rule:evenodd"
viewBox="0 0 312.16 312.16"
 xmlns:xlink="http://www.w3.org/1999/xlink">
 <defs>
  <style type="text/css">
   <![CDATA[
    .fil0 {fill:#575445}
    .fil1 {fill:white}
   ]]>
  </style>
 </defs>
 <g id="Layer_x0020_1">
  <metadata id="CorelCorpID_0Corel-Layer"/>
  <g id="_2861903309776">
   <path class="fil0" d="M156.08 0l0 0c86.19,0 156.08,69.89 156.08,156.08l0 0c0,86.19 -69.89,156.08 -156.08,156.08l0 0c-86.19,-0 -156.08,-69.9 -156.08,-156.08l-0 0c0,-86.19 69.9,-156.08 156.08,-156.08z"/>
   <path class="fil1" d="M246.19 129.29c-5.19,-5.62 -12.58,-8.73 -20.8,-8.73l-19.78 0 0 -10.7c0,-2.6 -2.12,-4.72 -4.72,-4.72l-94.22 0c-2.6,0 -4.72,2.12 -4.72,4.72l0 16.44 -18.36 0c-2.59,0 -4.72,2.12 -4.72,4.72 0,2.6 2.12,4.72 4.72,4.72l22.97 0c0.04,0 0.08,0 0.12,0 0,0 0,0 0.04,0 2.6,0 4.72,-2.12 4.72,-4.72l0 -16.44 84.78 0 0 10.7 0 63.27 -44.43 0c-0.2,0 -0.39,0 -0.59,0.04 -2.36,-5.82 -8.06,-9.95 -14.71,-9.95 -6.69,0 -12.39,4.17 -14.71,10.03 -0.35,-0.08 -0.67,-0.12 -1.02,-0.12l-9.32 0 0 -16.48c0,-2.6 -2.12,-4.72 -4.72,-4.72 -0.08,0 -0.16,0 -0.24,0 -0.08,0 -0.12,0 -0.2,0l-22.69 0c-2.59,0 -4.72,2.12 -4.72,4.72 0,2.6 2.12,4.72 4.72,4.72l18.36 0 0 16.44c0,2.59 2.12,4.72 4.72,4.72l14.04 0c0.12,0 0.2,0 0.32,0 1.57,7.08 7.9,12.35 15.45,12.35 7.55,0 13.84,-5.27 15.45,-12.35l49 0 7.55 0c1.61,7.04 7.9,12.35 15.45,12.35 7.55,0 13.84,-5.27 15.45,-12.35l10.54 0c2.59,0 4.72,-2.12 4.72,-4.72l0 -39.21c0,-10.19 -2.95,-18.76 -8.45,-24.73zm-109.71 71.61c-3.54,0 -6.41,-2.87 -6.41,-6.41 0,-3.54 2.87,-6.41 6.41,-6.41 3.54,0 6.41,2.87 6.41,6.41 0,3.54 -2.87,6.41 -6.41,6.41zm87.45 0c-3.54,0 -6.41,-2.87 -6.41,-6.41 0,-3.54 2.87,-6.41 6.41,-6.41 3.54,0 6.41,2.87 6.41,6.41 -0.04,3.54 -2.91,6.41 -6.41,6.41zm21.27 -12.35l-6.61 0c-2.36,-5.78 -8.06,-9.91 -14.67,-9.91 -6.61,0 -12.31,4.09 -14.67,9.91l-3.62 0 0 -58.55 19.78 0c12.39,0 19.78,9 19.78,24.06l0 34.49z"/>
   <path class="fil1" d="M143.48 160.4c-1.85,1.85 -1.85,4.84 0,6.69 0.9,0.9 2.12,1.38 3.34,1.38 1.22,0 2.4,-0.47 3.34,-1.38l12.15 -12.15 0.04 -0.04c0.08,-0.12 0.2,-0.2 0.28,-0.31 0.04,-0.08 0.08,-0.12 0.12,-0.2 0.04,-0.08 0.08,-0.12 0.16,-0.2 0.04,-0.08 0.08,-0.16 0.12,-0.24 0.04,-0.08 0.08,-0.12 0.12,-0.2 0.04,-0.08 0.08,-0.16 0.12,-0.24 0.04,-0.08 0.08,-0.12 0.08,-0.2 0.04,-0.08 0.04,-0.16 0.08,-0.24 0.04,-0.08 0.04,-0.16 0.08,-0.2 0.04,-0.08 0.04,-0.16 0.04,-0.24 0,-0.08 0.04,-0.16 0.04,-0.24 0,-0.08 0.04,-0.16 0.04,-0.28 0,-0.08 0.04,-0.12 0.04,-0.2 0.04,-0.32 0.04,-0.63 0,-0.94 0,-0.08 0,-0.12 -0.04,-0.2 0,-0.08 -0.04,-0.16 -0.04,-0.27 0,-0.08 -0.04,-0.16 -0.04,-0.24 0,-0.08 -0.04,-0.16 -0.04,-0.24 -0.04,-0.08 -0.04,-0.16 -0.08,-0.2 -0.04,-0.08 -0.04,-0.16 -0.08,-0.24 -0.04,-0.08 -0.08,-0.12 -0.08,-0.2 -0.04,-0.08 -0.08,-0.16 -0.12,-0.24 -0.04,-0.08 -0.08,-0.12 -0.12,-0.2 -0.04,-0.08 -0.08,-0.16 -0.12,-0.24 -0.04,-0.08 -0.08,-0.12 -0.16,-0.2 -0.04,-0.08 -0.08,-0.12 -0.12,-0.2 -0.08,-0.12 -0.2,-0.2 -0.28,-0.31l-0.04 -0.04 -11.56 -11.56c-1.85,-1.85 -4.84,-1.85 -6.69,0 -1.85,1.85 -1.85,4.84 0,6.69l3.5 3.5 -80.42 0c-2.6,0 -4.72,2.12 -4.72,4.72 0,2.59 2.12,4.72 4.72,4.72l80.38 0 -4.05 4.33z"/>
  </g>
 </g>
</svg>
