<?xml version="1.0" encoding="UTF-8"?>
<!DOCTYPE svg PUBLIC "-//W3C//DTD SVG 1.1//EN" "http://www.w3.org/Graphics/SVG/1.1/DTD/svg11.dtd">
<!-- Creator: CorelDRAW 2018 (64-Bit) -->
<svg xmlns="http://www.w3.org/2000/svg" xml:space="preserve" width="28.0843mm" height="8.2872mm" version="1.1" style="shape-rendering:geometricPrecision; text-rendering:geometricPrecision; image-rendering:optimizeQuality; fill-rule:evenodd; clip-rule:evenodd"
viewBox="0 0 941.56 277.84"
 xmlns:xlink="http://www.w3.org/1999/xlink">
 <defs>
  <style type="text/css">
   <![CDATA[
    .fil1 {fill:#FEFEFE}
    .fil0 {fill:#2B2A29}
   ]]>
  </style>
 </defs>
 <g id="Layer_x0020_1">
  <metadata id="CorelCorpID_0Corel-Layer"/>
  <path class="fil0" d="M906.68 277.84l-871.8 0c-19.23,0 -34.89,-15.66 -34.89,-34.73l0 -208.38c0,-19.14 15.66,-34.73 34.89,-34.73l871.8 0c19.21,0 34.88,15.59 34.88,34.73l0 208.38c0,19.07 -15.68,34.73 -34.88,34.73z"/>
  <path class="fil1" d="M653.75 92.41l0 -35.44 5.39 0 0 5.03c2.59,-3.86 6.35,-5.78 11.25,-5.78 2.14,0 4.1,0.39 5.88,1.15 1.79,0.76 3.13,1.77 4.02,3.01 0.89,1.24 1.52,2.72 1.87,4.43 0.21,1.12 0.33,3.06 0.33,5.84l0 21.76 -6.01 0 0 -21.53c0,-2.45 -0.23,-4.28 -0.69,-5.48 -0.47,-1.2 -1.3,-2.17 -2.48,-2.9 -1.18,-0.72 -2.58,-1.08 -4.18,-1.08 -2.55,0 -4.74,0.81 -6.6,2.43 -1.86,1.62 -2.78,4.7 -2.78,9.23l0 19.33 -6.01 0zm-34.08 -17.71c0,4.53 0.99,7.92 2.97,10.16 1.99,2.25 4.48,3.38 7.5,3.38 2.98,0 5.46,-1.13 7.45,-3.39 1.98,-2.26 2.97,-5.71 2.97,-10.34 0,-4.37 -1,-7.68 -2.99,-9.92 -1.99,-2.25 -4.47,-3.38 -7.43,-3.38 -3.02,0 -5.51,1.12 -7.5,3.36 -1.98,2.24 -2.97,5.62 -2.97,10.14zm-6.15 -0.01c0,-6.54 1.82,-11.39 5.47,-14.54 3.04,-2.62 6.76,-3.92 11.14,-3.92 4.85,0 8.84,1.59 11.94,4.78 3.08,3.17 4.63,7.58 4.63,13.19 0,4.55 -0.68,8.13 -2.05,10.73 -1.36,2.6 -3.36,4.63 -5.97,6.07 -2.61,1.44 -5.46,2.16 -8.55,2.16 -4.96,0 -8.97,-1.58 -12.03,-4.76 -3.06,-3.17 -4.59,-7.75 -4.59,-13.71zm-50.8 0.05c0,4.53 0.96,7.91 2.88,10.15 1.91,2.24 4.18,3.36 6.79,3.36 2.63,0 4.86,-1.07 6.7,-3.21 1.83,-2.14 2.75,-5.41 2.75,-9.8 0,-4.82 -0.93,-8.37 -2.81,-10.64 -1.87,-2.27 -4.18,-3.39 -6.92,-3.39 -2.67,0 -4.9,1.08 -6.7,3.26 -1.79,2.17 -2.69,5.6 -2.69,10.28zm18.98 17.67l0 -4.5c-2.24,3.49 -5.54,5.25 -9.9,5.25 -2.82,0 -5.41,-0.77 -7.77,-2.33 -2.37,-1.55 -4.2,-3.72 -5.51,-6.5 -1.3,-2.79 -1.94,-5.98 -1.94,-9.6 0,-3.53 0.59,-6.73 1.76,-9.61 1.18,-2.87 2.95,-5.08 5.3,-6.6 2.34,-1.54 4.98,-2.3 7.89,-2.3 2.14,0 4.04,0.45 5.7,1.35 1.66,0.9 3.02,2.08 4.06,3.53l0 -17.58 6.01 0 0 48.88 -5.6 0zm-38.18 -17.75c-2.19,0.89 -5.46,1.64 -9.83,2.25 -2.48,0.36 -4.23,0.75 -5.26,1.2 -1.02,0.44 -1.81,1.09 -2.37,1.93 -0.56,0.85 -0.84,1.8 -0.84,2.84 0,1.58 0.6,2.91 1.82,3.97 1.22,1.06 2.99,1.59 5.32,1.59 2.31,0 4.37,-0.5 6.18,-1.52 1.8,-1 3.13,-2.38 3.97,-4.12 0.65,-1.35 0.97,-3.35 0.97,-5.97l0.03 -2.19zm0.48 13.31c-2.23,1.9 -4.38,3.23 -6.44,4.02 -2.06,0.78 -4.27,1.17 -6.64,1.17 -3.89,0 -6.88,-0.94 -8.98,-2.85 -2.09,-1.89 -3.14,-4.31 -3.14,-7.26 0,-1.73 0.4,-3.31 1.18,-4.74 0.79,-1.43 1.83,-2.57 3.1,-3.44 1.29,-0.86 2.72,-1.53 4.32,-1.97 1.18,-0.31 2.97,-0.6 5.35,-0.9 4.85,-0.57 8.43,-1.26 10.72,-2.06 0.02,-0.82 0.03,-1.34 0.03,-1.56 0,-2.43 -0.57,-4.15 -1.71,-5.16 -1.54,-1.35 -3.83,-2.02 -6.85,-2.02 -2.84,0 -4.93,0.5 -6.27,1.49 -1.35,0.99 -2.34,2.74 -2.99,5.27l-5.87 -0.82c0.54,-2.51 1.41,-4.55 2.64,-6.1 1.23,-1.55 3.01,-2.73 5.33,-3.57 2.31,-0.83 5.01,-1.25 8.06,-1.25 3.03,0 5.5,0.35 7.4,1.07 1.89,0.72 3.29,1.61 4.18,2.69 0.89,1.08 1.51,2.45 1.88,4.1 0.19,1.02 0.3,2.87 0.3,5.52l0 7.97c0,5.56 0.12,9.08 0.37,10.57 0.24,1.49 0.74,2.91 1.47,4.28l-6.28 0c-0.6,-1.26 -0.99,-2.74 -1.16,-4.44zm-57.23 -13.27c0,4.53 0.99,7.92 2.97,10.16 1.99,2.25 4.48,3.38 7.5,3.38 2.98,0 5.46,-1.13 7.45,-3.39 1.98,-2.26 2.97,-5.71 2.97,-10.34 0,-4.37 -1,-7.68 -2.99,-9.92 -1.99,-2.25 -4.47,-3.38 -7.43,-3.38 -3.02,0 -5.51,1.12 -7.5,3.36 -1.98,2.24 -2.97,5.62 -2.97,10.14zm-6.15 -0.01c0,-6.54 1.82,-11.39 5.47,-14.54 3.04,-2.62 6.76,-3.92 11.14,-3.92 4.86,0 8.84,1.59 11.94,4.78 3.08,3.17 4.63,7.58 4.63,13.19 0,4.55 -0.68,8.13 -2.05,10.73 -1.37,2.6 -3.36,4.63 -5.97,6.07 -2.6,1.44 -5.46,2.16 -8.55,2.16 -4.96,0 -8.97,-1.58 -12.03,-4.76 -3.06,-3.17 -4.59,-7.75 -4.59,-13.71zm-13.05 17.72l0 -48.88 6.01 0 0 48.88 -6.01 0zm-37.84 0l0 -35.44 5.39 0 0 5.03c2.59,-3.86 6.35,-5.78 11.25,-5.78 2.14,0 4.1,0.39 5.88,1.15 1.79,0.76 3.13,1.77 4.02,3.01 0.89,1.24 1.51,2.72 1.86,4.43 0.22,1.12 0.33,3.06 0.33,5.84l0 21.76 -6.01 0 0 -21.53c0,-2.45 -0.23,-4.28 -0.7,-5.48 -0.47,-1.2 -1.29,-2.17 -2.48,-2.9 -1.18,-0.72 -2.58,-1.08 -4.18,-1.08 -2.55,0 -4.75,0.81 -6.6,2.43 -1.85,1.62 -2.78,4.7 -2.78,9.23l0 19.33 -6.01 0zm-42.93 0l-10.71 -35.44 6.28 0 5.66 20.45 2 7.61c0.08,-0.38 0.69,-2.81 1.83,-7.31l5.61 -20.76 6.16 0 5.33 20.57 1.74 6.75 2.04 -6.84 6.12 -20.48 5.84 0 -11.12 35.44 -6.21 0 -5.62 -21.2 -1.42 -6.06 -7.17 27.26 -6.36 0zm-40.45 -17.71c0,4.53 0.99,7.92 2.97,10.16 1.99,2.25 4.49,3.38 7.5,3.38 2.98,0 5.46,-1.13 7.45,-3.39 1.98,-2.26 2.97,-5.71 2.97,-10.34 0,-4.37 -1,-7.68 -2.99,-9.92 -1.99,-2.25 -4.47,-3.38 -7.43,-3.38 -3.01,0 -5.51,1.12 -7.5,3.36 -1.98,2.24 -2.97,5.62 -2.97,10.14zm-6.15 -0.01c0,-6.54 1.82,-11.39 5.47,-14.54 3.04,-2.62 6.76,-3.92 11.14,-3.92 4.86,0 8.84,1.59 11.94,4.78 3.08,3.17 4.63,7.58 4.63,13.19 0,4.55 -0.68,8.13 -2.05,10.73 -1.36,2.6 -3.36,4.63 -5.97,6.07 -2.6,1.44 -5.46,2.16 -8.55,2.16 -4.96,0 -8.97,-1.58 -12.03,-4.76 -3.06,-3.17 -4.59,-7.75 -4.59,-13.71zm-39.82 11.98l10.42 0c3.22,0 5.75,-0.3 7.58,-0.9 1.83,-0.6 3.29,-1.44 4.38,-2.54 1.52,-1.54 2.72,-3.61 3.57,-6.2 0.85,-2.59 1.29,-5.73 1.29,-9.43 0,-5.12 -0.84,-9.06 -2.51,-11.81 -1.67,-2.76 -3.71,-4.6 -6.11,-5.53 -1.73,-0.67 -4.52,-1 -8.36,-1l-10.25 0 0 37.41zm-6.49 5.74l0 -48.88 16.84 0c3.8,0 6.7,0.22 8.71,0.69 2.8,0.65 5.19,1.82 7.17,3.51 2.58,2.19 4.51,4.96 5.78,8.35 1.29,3.39 1.92,7.27 1.92,11.63 0,3.71 -0.43,7 -1.3,9.87 -0.86,2.87 -1.98,5.25 -3.33,7.12 -1.37,1.88 -2.85,3.36 -4.46,4.43 -1.61,1.08 -3.55,1.9 -5.83,2.46 -2.29,0.56 -4.9,0.83 -7.87,0.83l-17.63 0zm-148.55 -14.32c20.36,-0.48 36.62,-19.94 34.16,-40.47 -17.74,0.84 -37.96,20.56 -34.16,40.47zm606.03 132.21c-0.12,-10.7 -0.85,-26.25 0.28,-36.49 1.45,-13.03 6.79,-16.97 19.68,-17.56l-0.1 -12.86c-13.81,-0.66 -16.24,6.97 -21.43,11.73 -0.19,-1.34 -0.5,-5.56 -0.99,-6.75 -1.79,-4.35 0.83,-3.91 -12.34,-3.35l0.43 65.95 14.46 -0.67zm-133.19 -52.5c0.45,12.31 -1.16,32.32 2.04,43.25 1.91,6.53 4.71,9.36 10.96,11.39 6.55,2.13 12.94,2.02 16.74,-3.08 3.54,-10.67 -6.69,-5.6 -11.97,-9.5 -3.8,-2.8 -3.62,-8.2 -3.71,-12.94 -0.18,-9.24 -0.48,-21.89 0.65,-30.69l15 -1.62 0.36 -6.46c-4.45,-3.31 -8.99,-2.09 -15,-2.53l-1.04 -16.23 -12.69 3.53 -1.82 12.01 -6.57 1.98 -1.99 7.68c5.77,3.03 3.83,-0.68 9.07,3.22zm216.07 49.94c-0.45,-9.89 0.04,-8.52 -8.29,-7.3 -15.04,2.19 -36.23,0.32 -31.33,-19.45l44.21 -0.45c0.56,-19.56 -4.61,-31.68 -20.05,-36.4 -33.83,-10.35 -51.94,39.87 -28.23,60.54 9.75,8.5 30.97,10.97 43.68,3.05zm-39.98 -37.26c0.69,-22.76 31.8,-24.91 30.03,0l-30.03 0zm-72.11 14.7c8.63,-50.52 -56.14,-53.96 -63.17,-14.33 -8.74,49.29 55.81,57.36 63.17,14.33zm-14.99 1.61c-8.43,29.04 -41.08,15.7 -33.5,-17.27 6.34,-27.57 43.16,-16.02 33.5,17.27zm-162.24 -35.93c13.67,24.16 28.9,15.96 37.51,28.4 6.44,9.31 1,19.59 -7.79,21.97 -11.26,3.05 -21.18,-1.08 -29,-4.54l-2.24 11.81c20.74,10.88 27.6,2.59 43.88,1.28 0.26,-0.38 0.64,-0.82 0.84,-1.06l4.96 -5.38c5.56,-6.33 7.39,-15.26 5.22,-23.88 -5.92,-23.55 -50.24,-19.97 -38.16,-42.54 5.35,-10 22.04,-5.69 32.68,-3.33l2.83 -11.46c-24.22,-10.38 -55.33,-2.37 -50.71,28.74zm-240.64 34.43l30.13 0.22 8.45 27.04 15.23 0.18 -29.72 -92.25 -18.08 -0.31 -29.49 93.18 14.22 -0.52 9.25 -27.55zm14.66 -51.13l12.16 39.63 -24.24 0.25 12.08 -39.89zm116.2 52.63c1.71,-25.94 -6.02,-42.54 -32.66,-41.78 -7.39,3.41 -14,4.36 -16.87,10.21l-2.47 -9.17 -11.69 0.25 0.86 93.9 13.87 -0.48 0.64 -33.3c21.58,16.61 43.48,5.6 48.33,-19.63zm-36.13 -29.83c26.28,-6.74 28.41,40.43 9.11,45.14 -28.7,7 -28.63,-40.13 -9.11,-45.14zm50.21 25.72l0.35 57.49 14.05 -0.21 0.46 -33.66c10,6.41 21.07,12.63 34.91,2.83 19.39,-13.73 19.29,-50.88 -2.45,-61.72 -13.71,-6.84 -27.81,0.52 -33.74,8.15l-2.33 -9.39 -11.43 0.08 0.18 36.43zm26.94 -25.79c24.57,-8.46 29.62,39.85 9.24,45.09 -27.67,7.12 -28,-38.63 -9.24,-45.09zm-259.79 12.19c-10.43,-8.43 -21.88,-14.59 -23.1,-33.85 -0.6,-9.42 1.22,-16.6 5.4,-23.35 5.83,-9.41 9.13,-8.42 12.3,-15.3 -7.8,-11.78 -27.11,-19.77 -46.07,-13.96 -8.49,2.6 -15.74,8.07 -25.51,5.04 -8.4,-2.6 -15.28,-7.37 -24.94,-6.68 -16.5,1.18 -31.83,14.27 -37.07,27.33 -6.85,17.06 -5.66,35.63 -0.99,53.28 3.94,14.87 14.55,32.76 22.45,42.03 17.8,20.87 21.38,9.07 43.54,5.14 21.91,-3.89 32.1,17.14 50.62,-1.02 8.68,-8.51 20.38,-23.87 23.36,-38.65z"/>
 </g>
</svg>
