<?xml version="1.0" encoding="UTF-8"?>
<!DOCTYPE svg PUBLIC "-//W3C//DTD SVG 1.1//EN" "http://www.w3.org/Graphics/SVG/1.1/DTD/svg11.dtd">
<!-- Creator: CorelDRAW 2018 (64-Bit) -->
<svg xmlns="http://www.w3.org/2000/svg" xml:space="preserve" width="34.7132mm" height="10.2433mm" version="1.1" style="shape-rendering:geometricPrecision; text-rendering:geometricPrecision; image-rendering:optimizeQuality; fill-rule:evenodd; clip-rule:evenodd"
viewBox="0 0 2011.25 593.49"
 xmlns:xlink="http://www.w3.org/1999/xlink">
 <defs>
  <style type="text/css">
   <![CDATA[
    .fil1 {fill:#FEFEFE}
    .fil0 {fill:#2B2A29}
   ]]>
  </style>
 </defs>
 <g id="Layer_x0020_1">
  <metadata id="CorelCorpID_0Corel-Layer"/>
  <path class="fil0" d="M1936.74 593.49l-1862.23 0c-41.07,0 -74.52,-33.45 -74.52,-74.19l0 -445.12c0,-40.89 33.45,-74.19 74.52,-74.19l1862.23 0c41.03,0 74.52,33.3 74.52,74.19l0 445.12c0,40.74 -33.49,74.19 -74.52,74.19z"/>
  <path class="fil1" d="M1396.47 197.39l0 -75.69 11.52 0 0 10.75c5.54,-8.24 13.56,-12.35 24.04,-12.35 4.57,0 8.75,0.83 12.56,2.46 3.82,1.63 6.69,3.8 8.59,6.44 1.89,2.65 3.23,5.81 3.98,9.46 0.46,2.38 0.71,6.54 0.71,12.47l0 46.47 -12.83 0 0 -45.99c0,-5.23 -0.49,-9.14 -1.48,-11.72 -1,-2.58 -2.77,-4.65 -5.3,-6.2 -2.53,-1.54 -5.52,-2.31 -8.92,-2.31 -5.45,0 -10.14,1.73 -14.1,5.2 -3.97,3.45 -5.93,10.04 -5.93,19.71l0 41.3 -12.84 0zm-72.79 -37.82c0,9.67 2.11,16.92 6.34,21.7 4.25,4.81 9.58,7.22 16.01,7.22 6.37,0 11.67,-2.4 15.92,-7.24 4.23,-4.84 6.34,-12.2 6.34,-22.1 0,-9.33 -2.14,-16.41 -6.39,-21.19 -4.26,-4.81 -9.55,-7.22 -15.88,-7.22 -6.44,0 -11.77,2.38 -16.01,7.17 -4.23,4.79 -6.34,12 -6.34,21.66zm-13.13 -0.03c0,-13.97 3.89,-24.33 11.69,-31.07 6.49,-5.59 14.44,-8.38 23.8,-8.38 10.38,0 18.89,3.4 25.5,10.21 6.59,6.78 9.9,16.19 9.9,28.18 0,9.72 -1.46,17.35 -4.38,22.92 -2.91,5.57 -7.17,9.9 -12.76,12.98 -5.57,3.09 -11.67,4.62 -18.26,4.62 -10.6,0 -19.15,-3.38 -25.69,-10.16 -6.54,-6.78 -9.8,-16.55 -9.8,-29.29zm-108.51 0.1c0,9.68 2.04,16.9 6.15,21.68 4.08,4.79 8.92,7.17 14.48,7.17 5.62,0 10.38,-2.28 14.32,-6.85 3.91,-4.57 5.88,-11.55 5.88,-20.93 0,-10.31 -1.99,-17.89 -6,-22.73 -3.99,-4.84 -8.92,-7.24 -14.78,-7.24 -5.71,0 -10.48,2.31 -14.32,6.95 -3.82,4.64 -5.74,11.96 -5.74,21.95zm40.54 37.75l0 -9.6c-4.79,7.46 -11.83,11.21 -21.15,11.21 -6.02,0 -11.57,-1.66 -16.6,-4.99 -5.05,-3.3 -8.97,-7.94 -11.77,-13.88 -2.77,-5.96 -4.15,-12.79 -4.15,-20.52 0,-7.54 1.26,-14.36 3.77,-20.52 2.53,-6.12 6.29,-10.84 11.33,-14.1 5.01,-3.29 10.64,-4.91 16.84,-4.91 4.57,0 8.63,0.97 12.18,2.9 3.55,1.92 6.44,4.44 8.67,7.53l0 -37.55 12.84 0 0 104.42 -11.96 0zm-81.55 -37.92c-4.66,1.89 -11.67,3.5 -21,4.81 -5.3,0.75 -9.04,1.6 -11.23,2.55 -2.18,0.94 -3.86,2.33 -5.06,4.14 -1.19,1.82 -1.8,3.84 -1.8,6.07 0,3.38 1.29,6.22 3.89,8.48 2.6,2.26 6.39,3.4 11.37,3.4 4.94,0 9.33,-1.07 13.2,-3.23 3.84,-2.14 6.69,-5.08 8.48,-8.8 1.38,-2.9 2.07,-7.15 2.07,-12.76l0.07 -4.66zm1.02 28.44c-4.76,4.06 -9.36,6.91 -13.75,8.58 -4.4,1.68 -9.11,2.51 -14.17,2.51 -8.31,0 -14.7,-2.02 -19.18,-6.08 -4.47,-4.03 -6.7,-9.21 -6.7,-15.5 0,-3.7 0.85,-7.07 2.53,-10.13 1.7,-3.06 3.92,-5.5 6.63,-7.34 2.75,-1.85 5.81,-3.26 9.24,-4.21 2.53,-0.66 6.34,-1.29 11.43,-1.92 10.35,-1.21 18.01,-2.69 22.9,-4.4 0.05,-1.75 0.07,-2.87 0.07,-3.33 0,-5.2 -1.22,-8.87 -3.64,-11.01 -3.29,-2.89 -8.17,-4.32 -14.63,-4.32 -6.05,0 -10.53,1.07 -13.4,3.19 -2.9,2.11 -5.01,5.86 -6.4,11.25l-12.54 -1.75c1.15,-5.38 3.02,-9.73 5.64,-13.03 2.63,-3.3 6.43,-5.83 11.38,-7.63 4.94,-1.77 10.7,-2.68 17.21,-2.68 6.47,0 11.74,0.75 15.8,2.28 4.04,1.54 7.03,3.43 8.92,5.74 1.89,2.31 3.23,5.23 4.01,8.75 0.42,2.18 0.64,6.12 0.64,11.79l0 17.01c0,11.89 0.26,19.4 0.8,22.58 0.51,3.19 1.58,6.22 3.13,9.14l-13.42 0c-1.29,-2.69 -2.11,-5.85 -2.48,-9.48zm-122.24 -28.34c0,9.67 2.11,16.92 6.34,21.7 4.25,4.81 9.58,7.22 16.02,7.22 6.36,0 11.66,-2.4 15.92,-7.24 4.23,-4.84 6.34,-12.2 6.34,-22.1 0,-9.33 -2.14,-16.41 -6.4,-21.19 -4.25,-4.81 -9.55,-7.22 -15.87,-7.22 -6.44,0 -11.77,2.38 -16.02,7.17 -4.23,4.79 -6.34,12 -6.34,21.66zm-13.12 -0.03c0,-13.97 3.89,-24.33 11.69,-31.07 6.48,-5.59 14.44,-8.38 23.8,-8.38 10.38,0 18.88,3.4 25.5,10.21 6.58,6.78 9.89,16.19 9.89,28.18 0,9.72 -1.45,17.35 -4.37,22.92 -2.92,5.57 -7.17,9.9 -12.76,12.98 -5.57,3.09 -11.67,4.62 -18.26,4.62 -10.6,0 -19.15,-3.38 -25.7,-10.16 -6.54,-6.78 -9.79,-16.55 -9.79,-29.29zm-27.89 37.85l0 -104.42 12.84 0 0 104.42 -12.84 0zm-80.83 0l0 -75.69 11.52 0 0 10.75c5.54,-8.24 13.56,-12.35 24.04,-12.35 4.57,0 8.75,0.83 12.56,2.46 3.82,1.63 6.69,3.8 8.59,6.44 1.89,2.65 3.23,5.81 3.98,9.46 0.46,2.38 0.71,6.54 0.71,12.47l0 46.47 -12.83 0 0 -45.99c0,-5.23 -0.49,-9.14 -1.48,-11.72 -1,-2.58 -2.77,-4.65 -5.3,-6.2 -2.53,-1.54 -5.52,-2.31 -8.92,-2.31 -5.45,0 -10.14,1.73 -14.1,5.2 -3.97,3.45 -5.93,10.04 -5.93,19.71l0 41.3 -12.84 0zm-91.71 0l-22.87 -75.69 13.42 0 12.08 43.68 4.28 16.26c0.17,-0.8 1.48,-6 3.92,-15.6l11.98 -44.34 13.15 0 11.4 43.95 3.72 14.42 4.35 -14.61 13.08 -43.76 12.47 0 -23.74 75.69 -13.27 0 -12.01 -45.28 -3.04 -12.96 -15.31 58.23 -13.59 0zm-86.42 -37.82c0,9.67 2.11,16.92 6.34,21.7 4.25,4.81 9.58,7.22 16.02,7.22 6.37,0 11.67,-2.4 15.92,-7.24 4.23,-4.84 6.34,-12.2 6.34,-22.1 0,-9.33 -2.14,-16.41 -6.4,-21.19 -4.25,-4.81 -9.55,-7.22 -15.87,-7.22 -6.44,0 -11.77,2.38 -16.02,7.17 -4.23,4.79 -6.34,12 -6.34,21.66zm-13.12 -0.03c0,-13.97 3.89,-24.33 11.69,-31.07 6.49,-5.59 14.44,-8.38 23.8,-8.38 10.38,0 18.89,3.4 25.5,10.21 6.59,6.78 9.9,16.19 9.9,28.18 0,9.72 -1.46,17.35 -4.38,22.92 -2.91,5.57 -7.17,9.9 -12.76,12.98 -5.57,3.09 -11.67,4.62 -18.26,4.62 -10.6,0 -19.15,-3.38 -25.69,-10.16 -6.54,-6.78 -9.8,-16.55 -9.8,-29.29zm-85.05 25.6l22.26 0c6.88,0 12.28,-0.63 16.19,-1.92 3.91,-1.29 7.02,-3.08 9.36,-5.42 3.26,-3.28 5.81,-7.71 7.63,-13.25 1.83,-5.54 2.75,-12.25 2.75,-20.15 0,-10.93 -1.8,-19.35 -5.37,-25.23 -3.57,-5.88 -7.93,-9.82 -13.05,-11.81 -3.7,-1.44 -9.65,-2.14 -17.86,-2.14l-21.9 0 0 79.92zm-13.86 12.25l0 -104.42 35.97 0c8.12,0 14.32,0.48 18.6,1.48 5.98,1.38 11.08,3.89 15.31,7.49 5.52,4.67 9.62,10.6 12.35,17.85 2.75,7.24 4.11,15.53 4.11,24.84 0,7.93 -0.93,14.95 -2.77,21.08 -1.85,6.12 -4.23,11.21 -7.12,15.21 -2.92,4.01 -6.08,7.17 -9.53,9.46 -3.43,2.31 -7.58,4.06 -12.45,5.25 -4.89,1.19 -10.48,1.77 -16.8,1.77l-37.68 0zm-317.3 -30.59c43.48,-1.03 78.21,-42.59 72.97,-86.44 -37.9,1.8 -81.1,43.92 -72.97,86.44zm1294.53 282.42c-0.25,-22.86 -1.83,-56.07 0.6,-77.93 3.09,-27.85 14.5,-36.25 42.03,-37.52l-0.21 -27.46c-29.5,-1.41 -34.68,14.88 -45.77,25.06 -0.4,-2.86 -1.07,-11.88 -2.11,-14.42 -3.82,-9.28 1.77,-8.34 -26.35,-7.16l0.93 140.88 30.89 -1.44zm-284.5 -112.13c0.95,26.29 -2.47,69.02 4.35,92.38 4.07,13.96 10.05,19.99 23.4,24.32 13.99,4.54 27.64,4.31 35.76,-6.58 7.56,-22.79 -14.28,-11.95 -25.57,-20.28 -8.12,-5.99 -7.72,-17.52 -7.92,-27.65 -0.39,-19.74 -1.02,-46.75 1.39,-65.56l32.03 -3.47 0.76 -13.81c-9.51,-7.07 -19.21,-4.46 -32.05,-5.42l-2.22 -34.65 -27.09 7.53 -3.91 25.66 -14.04 4.24 -4.25 16.41c12.32,6.47 8.18,-1.46 19.36,6.88zm461.54 106.68c-0.97,-21.13 0.09,-18.2 -17.72,-15.6 -32.13,4.69 -77.39,0.69 -66.91,-41.54l94.45 -0.95c1.19,-41.77 -9.86,-67.66 -42.82,-77.74 -72.27,-22.11 -110.95,85.16 -60.31,129.33 20.83,18.16 66.17,23.43 93.32,6.51zm-85.4 -79.59c1.48,-48.62 67.92,-53.21 64.13,0l-64.13 0zm-154.03 31.41c18.44,-107.91 -119.91,-115.27 -134.93,-30.6 -18.67,105.3 119.22,122.52 134.93,30.6zm-32.02 3.44c-18.01,62.02 -87.75,33.55 -71.56,-36.88 13.55,-58.89 92.2,-34.21 71.56,36.88zm-346.57 -76.75c29.2,51.61 61.73,34.09 80.12,60.65 13.77,19.88 2.14,41.86 -16.63,46.93 -24.06,6.51 -45.23,-2.31 -61.96,-9.7l-4.78 25.24c44.3,23.24 58.95,5.54 93.73,2.74 0.55,-0.8 1.37,-1.76 1.8,-2.27l10.59 -11.49c11.88,-13.52 15.78,-32.6 11.14,-51.02 -12.65,-50.31 -107.31,-42.67 -81.52,-90.88 11.42,-21.37 47.08,-12.16 69.81,-7.12l6.04 -24.48c-51.73,-22.17 -118.18,-5.07 -108.33,61.4zm-514.02 73.54l64.36 0.47 18.05 57.77 32.54 0.39 -63.48 -197.06 -38.62 -0.65 -62.99 199.04 30.36 -1.1 19.77 -58.85zm31.32 -109.23l25.97 84.67 -51.78 0.54 25.81 -85.21zm248.23 112.42c3.66,-55.4 -12.86,-90.87 -69.78,-89.23 -15.78,7.27 -29.9,9.3 -36.04,21.81l-5.28 -19.59 -24.97 0.53 1.83 200.57 29.61 -1.03 1.38 -71.13c46.1,35.48 92.88,11.96 103.24,-41.94zm-77.17 -63.72c56.13,-14.4 60.7,86.35 19.45,96.42 -61.3,14.95 -61.15,-85.73 -19.45,-96.42zm107.26 54.94l0.74 122.8 30.01 -0.45 0.98 -71.91c21.36,13.69 45.01,26.98 74.57,6.05 41.42,-29.32 41.2,-108.69 -5.23,-131.85 -29.28,-14.61 -59.41,1.12 -72.08,17.41l-4.97 -20.05 -24.4 0.16 0.38 77.83zm57.56 -55.09c52.49,-18.07 63.28,85.12 19.74,96.32 -59.12,15.2 -59.82,-82.52 -19.74,-96.32zm-554.94 26.03c-22.28,-18 -46.73,-31.17 -49.34,-72.31 -1.28,-20.13 2.61,-35.45 11.54,-49.88 12.46,-20.1 19.51,-17.98 26.28,-32.68 -16.66,-25.16 -57.91,-42.23 -98.4,-29.81 -18.13,5.56 -33.62,17.23 -54.49,10.76 -17.94,-5.56 -32.65,-15.74 -53.29,-14.27 -35.25,2.51 -68,30.48 -79.19,58.37 -14.64,36.44 -12.09,76.11 -2.11,113.8 8.41,31.76 31.08,69.97 47.96,89.77 38.02,44.58 45.67,19.38 93,10.97 46.8,-8.3 68.57,36.61 108.13,-2.18 18.53,-18.18 43.54,-50.98 49.89,-82.55z"/>
 </g>
</svg>
