<?xml version="1.0" encoding="UTF-8"?>
<!DOCTYPE svg PUBLIC "-//W3C//DTD SVG 1.1//EN" "http://www.w3.org/Graphics/SVG/1.1/DTD/svg11.dtd">
<!-- Creator: CorelDRAW 2018 (64-Bit) -->
<svg xmlns="http://www.w3.org/2000/svg" xml:space="preserve" width="28.0844mm" height="8.2873mm" version="1.1" style="shape-rendering:geometricPrecision; text-rendering:geometricPrecision; image-rendering:optimizeQuality; fill-rule:evenodd; clip-rule:evenodd"
viewBox="0 0 3213.39 948.23"
 xmlns:xlink="http://www.w3.org/1999/xlink">
 <defs>
  <style type="text/css">
   <![CDATA[
    .fil1 {fill:#FEFEFE}
    .fil0 {fill:#2B2A29}
   ]]>
  </style>
 </defs>
 <g id="Layer_x0020_1">
  <metadata id="CorelCorpID_0Corel-Layer"/>
  <g id="_2009876779152">
   <path class="fil0" d="M3094.33 948.23l-2975.27 0c-65.62,0 -119.05,-53.45 -119.05,-118.53l0 -711.17c0,-65.32 53.43,-118.53 119.05,-118.53l2975.27 0c65.56,0 119.06,53.2 119.06,118.53l0 711.17c0,65.08 -53.5,118.53 -119.06,118.53z"/>
   <path class="fil1" d="M247.34 178.6c-5.77,6.19 -9.47,15.16 -10.52,26.61l-0.02 0.17c-0.09,1.04 -0.16,2.11 -0.21,3.18l0 0.09 -0.06 1.34 0 0.3 -0.01 0.38 -0.01 1.38 0 3.43 0 520.76c0,14.77 3.96,26.06 11.05,33.16l0.01 0 -0.24 0.24c10.81,11.58 28.96,12.88 49.25,1.59l194.89 -110.86 151.7 -86.17 -0.09 -0.08 115.71 -65.78c32.92,-18.76 33.17,-49.28 0.78,-68.01l-0.78 -0.45 0 0 -115.85 -65.86 -2.14 -1.29 -0.05 0.06 -344.17 -195.5 -0.89 -0.5 -0.66 -0.35 -0.23 -0.14 -0.89 -0.47 -0.41 -0.22 -0.48 -0.23 -0.88 -0.43 -0.17 -0.09 -0.71 -0.33 -0.14 -0.06c-17.19,-8.04 -32.29,-6.48 -42.23,2.78l-0.07 0.06 -0.07 0.07 -0.08 0.07 -1.33 1.16zm2287.52 532.58l44.27 0 0 -296.29 -44.27 0 0 296.29zm398.56 -189.65l-50.85 128.52 -1.59 0 -52.68 -128.52 -47.64 0 79.04 179.66 -45.05 99.84 46.11 0 121.59 -279.5c0,0 -48.94,0 -48.94,0zm-251.07 155.95c-14.47,0 -34.76,-7.09 -34.76,-25.31 0,-22.93 25.31,-31.63 46.89,-31.63 19.5,0 28.72,4.2 40.31,9.99 -3.19,26.6 -25.65,46.71 -52.44,46.95zm5.56 -162.28c-32.15,0 -65.32,14.25 -79.04,45.29l39.26 16.32c8.46,-16.32 23.95,-21.88 40.31,-21.88 22.94,0 46.12,13.72 46.65,38.19l0 3.14c-7.92,-4.5 -25.31,-11.35 -46.11,-11.35 -42.39,0 -85.37,23.17 -85.37,66.61 0,39.79 34.76,65.33 73.49,65.33 29.73,0 46.1,-13.42 56.33,-28.97l1.6 0 0 22.94 42.68 0 0 -113.5c0,-52.85 -39.26,-82.12 -89.8,-82.12zm-273.4 42.39l-62.96 0 0 -101.67 62.96 -0.01c33.16,0 51.9,27.37 51.9,50.85 0,23.23 -18.97,50.84 -51.9,50.84zm-1.3 -142.7l-105.87 0 0 296.29 44.27 0 0 -112.2 61.66 0c49.02,0 97.19,-35.54 97.19,-91.92 0,-56.41 -48,-92.16 -97.24,-92.16zm-577.91 262.59c-30.56,0 -56.1,-25.54 -56.1,-60.84 0,-35.58 25.54,-61.36 56.1,-61.36 30.26,0 53.73,26.08 53.73,61.36 0.3,35.3 -23.41,60.84 -53.73,60.84zm50.84 -139.34l-1.6 0c-9.99,-11.88 -28.96,-22.64 -53.19,-22.64 -50.31,0 -96.66,44.28 -96.66,101.15 0,56.64 46.12,100.38 96.66,100.38 23.94,0 43.2,-10.81 53.19,-22.93l1.6 0 0 14.49c0,38.48 -20.57,59.22 -53.74,59.22 -27.13,0 -43.97,-19.5 -50.84,-35.81l-38.48 16.08c11.05,26.6 40.55,59.53 89.26,59.53 51.9,0 95.89,-30.56 95.89,-105.11l0 -180.97 -41.85 0 0 16.61c0.06,0 -0.24,0 -0.24,0zm72.71 173.04l44.28 0 0 -296.29 -44.28 0 0 296.29zm109.54 -97.71c-1.06,-38.97 30.26,-58.77 52.67,-58.77 17.67,0 32.39,8.68 37.42,21.34l-90.08 37.43zm137.5 -33.71c-8.46,-22.63 -33.99,-64.26 -86.37,-64.26 -51.89,0 -95.05,40.86 -95.05,100.86 0,56.63 42.68,100.85 100.08,100.85 46.11,0 72.94,-28.2 84,-44.75l-34.22 -22.94c-11.35,16.84 -27.13,27.91 -49.53,27.91 -22.64,0 -38.49,-10.29 -49.02,-30.57l134.84 -55.86c0,0.06 -4.73,-11.24 -4.73,-11.24zm-1074.06 -33.22l0 42.68 102.44 0c-3.14,23.95 -11.05,41.61 -23.17,53.73 -15.01,15.02 -38.18,31.34 -79.04,31.34 -62.95,0 -112.19,-50.85 -112.19,-113.8 0,-62.95 49.23,-113.79 112.19,-113.79 33.99,0 58.77,13.41 77.14,30.55l30.28 -30.26c-25.54,-24.47 -59.53,-43.22 -107.18,-43.22 -86.36,0 -158.85,70.36 -158.85,156.48 0,86.37 72.43,156.48 158.85,156.48 46.65,0 81.64,-15.24 109.3,-43.97 28.19,-28.2 37.13,-67.99 37.13,-100.09 0,-9.99 -0.78,-18.97 -2.37,-26.6l-144.59 0c0.06,-0.06 0.06,0.48 0.06,0.48zm262.58 130.94c-30.55,0 -56.87,-25.31 -56.87,-61.12 0,-36.36 26.36,-61.13 56.87,-61.13 30.57,0 56.88,24.77 56.88,61.13 0,36.05 -26.3,61.12 -56.88,61.12zm0 -161.74c-55.86,0 -101.14,42.38 -101.14,100.85 0,57.94 45.57,100.86 101.14,100.86 55.87,0 101.16,-42.69 101.16,-100.86 0,-58.46 -45.34,-100.85 -101.16,-100.85zm220.69 161.74c-30.57,0 -56.88,-25.31 -56.88,-61.12 0,-36.36 26.36,-61.13 56.88,-61.13 30.55,0 56.87,24.77 56.87,61.13 0.06,36.05 -26.3,61.12 -56.87,61.12zm0 -161.74c-55.87,0 -101.16,42.38 -101.16,100.85 0,57.94 45.58,100.86 101.16,100.86 55.86,0 101.14,-42.69 101.14,-100.86 0,-58.46 -45.28,-100.85 -101.14,-100.85zm40.66 -239.54c10.23,10.22 22.64,15.37 37.06,15.37 14.84,0 26.96,-5.02 37.07,-15.37 10.05,-10.05 15.13,-23.24 15.13,-39.13 0,-15.9 -5.08,-29.15 -15.07,-39.14 -10.23,-10.22 -22.7,-15.37 -37.07,-15.37 -14.83,0 -26.95,5.02 -37,15.37 -10.05,10.05 -15.13,23.24 -15.13,39.14 0,15.89 5.02,29.14 15.01,39.13l0 0zm-420.19 34.11l-87.73 0 0 -146.73 87.73 0 0 22.12 -64.8 0 0 40.31 58.47 0 0 21.88 -58.47 0 0 40.31 64.8 0 0 22.12zm77.14 0.24l-22.87 0 0 -124.85 -39.78 0 0 -22.12 102.45 0 0 22.12 -39.79 0 0 124.85zm128.58 0l-22.88 0 0 -146.97 22.88 0 0 146.97zm81.4 0l-22.94 0 0 -124.85 -39.78 0 0 -22.12 102.45 0 0 22.12 -39.78 0 0 124.85 0.06 0zm380.58 0l-22.63 0 -69.35 -110.96 0.59 19.98 0 90.92 -22.64 0 0 -146.9 25.84 0 0.71 1.12 65.2 104.52 -0.58 -19.92 0 -85.72 22.87 0 0 146.97zm-848.96 3.12c-20.98,0 -39.19,-7.39 -54.09,-21.98 -14.77,-14.54 -22.29,-32.93 -22.29,-54.62 0,-21.71 7.52,-40.09 22.29,-54.64 14.6,-14.59 32.8,-21.98 54.09,-21.98 10.41,0 20.52,2.07 30.21,6.26 9.52,4.08 17.27,9.63 23,16.44l1.42 1.7 -16.02 15.73 -1.66 -1.96c-9.04,-10.76 -21.16,-16.02 -37.17,-16.02 -14.31,0 -26.79,5.08 -37.07,15.13 -10.34,10.11 -15.61,23.36 -15.61,39.38 0,16.02 5.26,29.26 15.61,39.37 10.29,10.05 22.76,15.13 37.07,15.13 15.24,0 28.08,-5.08 38.07,-15.13 5.92,-5.92 9.58,-14.19 10.88,-24.66l-51.37 0 0 -22.11 73.42 0 0.29 2.01c0.54,3.72 1.08,7.56 1.08,11.11 0,20.39 -6.16,36.89 -18.33,49.06 -13.83,14.43 -31.92,21.75 -53.8,21.75zm638.5 0c-21.45,0 -39.54,-7.51 -53.85,-22.28 -14.19,-14.37 -22.11,-34.18 -21.75,-54.39 0,-21.57 7.32,-39.84 21.75,-54.33 14.25,-14.78 32.33,-22.28 53.79,-22.28 21.22,0 39.31,7.49 53.86,22.28 14.43,14.95 21.75,33.23 21.75,54.33 -0.24,21.64 -7.56,39.91 -21.75,54.34 -14.25,14.9 -32.33,22.33 -53.8,22.33z"/>
  </g>
 </g>
</svg>
