<?xml version="1.0" encoding="UTF-8"?>
<!DOCTYPE svg PUBLIC "-//W3C//DTD SVG 1.1//EN" "http://www.w3.org/Graphics/SVG/1.1/DTD/svg11.dtd">
<!-- Creator: CorelDRAW 2018 (64-Bit) -->
<svg xmlns="http://www.w3.org/2000/svg" xml:space="preserve" width="34.7132mm" height="10.2434mm" version="1.1" style="shape-rendering:geometricPrecision; text-rendering:geometricPrecision; image-rendering:optimizeQuality; fill-rule:evenodd; clip-rule:evenodd"
viewBox="0 0 1995.68 588.9"
 xmlns:xlink="http://www.w3.org/1999/xlink">
 <defs>
  <style type="text/css">
   <![CDATA[
    .fil1 {fill:#FEFEFE}
    .fil0 {fill:#2B2A29}
   ]]>
  </style>
 </defs>
 <g id="Layer_x0020_1">
  <metadata id="CorelCorpID_0Corel-Layer"/>
  <path class="fil0" d="M1921.75 588.9l-1847.81 0c-40.75,0 -73.94,-33.2 -73.94,-73.62l0 -441.67c0,-40.57 33.19,-73.62 73.94,-73.62l1847.81 0c40.71,0 73.94,33.05 73.94,73.62l0 441.67c0,40.42 -33.23,73.62 -73.94,73.62z"/>
  <path class="fil1" d="M153.62 110.92c-3.58,3.85 -5.89,9.41 -6.53,16.53l-0.01 0.11c-0.06,0.64 -0.1,1.31 -0.13,1.98l0 0.05 -0.03 0.83 0 0.18 -0.01 0.24 -0.01 0.86 0 2.13 0 323.41c0,9.18 2.45,16.2 6.86,20.59l0.01 0 -0.15 0.15c6.71,7.19 17.99,8.01 30.58,0.99l121.04 -68.85 94.22 -53.51 -0.06 -0.05 71.87 -40.86c20.44,-11.65 20.59,-30.6 0.48,-42.23l-0.48 -0.28 0 -0.01 -71.96 -40.9 -1.32 -0.8 -0.03 0.03 -213.75 -121.41 -0.55 -0.32 -0.41 -0.22 -0.15 -0.08 -0.55 -0.29 -0.26 -0.13 -0.29 -0.14 -0.55 -0.27 -0.1 -0.06 -0.44 -0.21 -0.08 -0.03c-10.68,-4.99 -20.06,-4.02 -26.23,1.73l-0.04 0.03 -0.05 0.04 -0.05 0.04 -0.82 0.72zm1420.67 330.76l27.5 0 0 -184.01 -27.5 0 0 184.01zm247.53 -117.78l-31.57 79.81 -0.99 0 -32.71 -79.81 -29.59 0 49.09 111.57 -27.97 62.01 28.64 0 75.52 -173.58c0,0 -30.4,0 -30.4,0zm-155.93 96.85c-8.99,0 -21.59,-4.4 -21.59,-15.71 0,-14.25 15.72,-19.64 29.11,-19.64 12.12,0 17.85,2.6 25.04,6.2 -1.98,16.52 -15.94,29 -32.57,29.15zm3.45 -100.78c-19.97,0 -40.57,8.85 -49.08,28.12l24.37 10.13c5.25,-10.13 14.87,-13.58 25.04,-13.58 14.25,0 28.64,8.51 28.97,23.71l0 1.95c-4.92,-2.79 -15.72,-7.05 -28.64,-7.05 -26.32,0 -53.01,14.4 -53.01,41.38 0,24.71 21.59,40.57 45.64,40.57 18.47,0 28.64,-8.33 34.98,-17.99l0.99 0 0 14.25 26.51 0 0 -70.5c0,-32.82 -24.38,-50.99 -55.77,-50.99zm-169.8 26.32l-39.1 0 0 -63.14 39.1 -0.01c20.6,0 32.24,17 32.24,31.57 0,14.43 -11.79,31.57 -32.24,31.57zm-0.81 -88.63l-65.75 0 0 184.01 27.49 0 0 -69.68 38.29 0c30.44,0 60.36,-22.07 60.36,-57.09 0,-35.02 -29.81,-57.24 -60.4,-57.24zm-358.91 163.08c-18.98,0 -34.84,-15.86 -34.84,-37.78 0,-22.11 15.86,-38.11 34.84,-38.11 18.8,0 33.37,16.19 33.37,38.11 0.18,21.92 -14.54,37.78 -33.37,37.78zm31.57 -86.53l-0.99 0c-6.2,-7.38 -17.99,-14.06 -33.04,-14.06 -31.24,0 -60.03,27.5 -60.03,62.82 0,35.17 28.64,62.34 60.03,62.34 14.87,0 26.84,-6.71 33.04,-14.24l0.99 0 0 8.99c0,23.9 -12.78,36.79 -33.37,36.79 -16.85,0 -27.31,-12.11 -31.57,-22.25l-23.9 9.99c6.86,16.52 25.18,36.97 55.43,36.97 32.24,0 59.55,-18.98 59.55,-65.27l0 -112.38 -26 0 0 10.31c0.04,0 -0.14,0 -0.14,0zm45.16 107.46l27.5 0 0 -184.01 -27.5 0 0 184.01zm68.03 -60.69c-0.66,-24.2 18.8,-36.5 32.71,-36.5 10.97,0 20.12,5.4 23.24,13.26l-55.95 23.24zm85.4 -20.93c-5.25,-14.06 -21.11,-39.91 -53.64,-39.91 -32.24,0 -59.04,25.37 -59.04,62.64 0,35.17 26.51,62.64 62.15,62.64 28.64,0 45.31,-17.51 52.17,-27.79l-21.26 -14.25c-7.04,10.46 -16.84,17.33 -30.76,17.33 -14.06,0 -23.9,-6.39 -30.44,-18.98l83.75 -34.69c0,0.03 -2.94,-6.98 -2.94,-6.98zm-667.05 -20.63l0 26.51 63.62 0c-1.95,14.87 -6.86,25.84 -14.39,33.37 -9.32,9.32 -23.72,19.45 -49.09,19.45 -39.11,0 -69.68,-31.57 -69.68,-70.67 0,-39.1 30.58,-70.67 69.68,-70.67 21.1,0 36.5,8.33 47.91,18.98l18.8 -18.8c-15.86,-15.19 -36.97,-26.84 -66.56,-26.84 -53.64,0 -98.65,43.69 -98.65,97.18 0,53.64 44.97,97.18 98.65,97.18 28.97,0 50.71,-9.47 67.88,-27.31 17.51,-17.52 23.05,-42.23 23.05,-62.16 0,-6.2 -0.48,-11.79 -1.47,-16.52l-89.8 0c0.03,-0.04 0.03,0.29 0.03,0.29zm163.08 81.32c-18.97,0 -35.32,-15.71 -35.32,-37.96 0,-22.58 16.37,-37.96 35.32,-37.96 18.98,0 35.32,15.38 35.32,37.96 0,22.39 -16.34,37.96 -35.32,37.96zm0 -100.45c-34.69,0 -62.81,26.32 -62.81,62.64 0,35.98 28.31,62.64 62.81,62.64 34.7,0 62.82,-26.5 62.82,-62.64 0,-36.31 -28.16,-62.64 -62.82,-62.64zm137.06 100.45c-18.98,0 -35.32,-15.71 -35.32,-37.96 0,-22.58 16.37,-37.96 35.32,-37.96 18.98,0 35.32,15.38 35.32,37.96 0.04,22.39 -16.33,37.96 -35.32,37.96zm0 -100.45c-34.7,0 -62.82,26.32 -62.82,62.64 0,35.98 28.31,62.64 62.82,62.64 34.7,0 62.81,-26.5 62.81,-62.64 0,-36.31 -28.12,-62.64 -62.81,-62.64zm25.26 -148.76c6.35,6.35 14.06,9.55 23.02,9.55 9.22,0 16.74,-3.12 23.02,-9.55 6.24,-6.24 9.4,-14.43 9.4,-24.3 0,-9.88 -3.16,-18.1 -9.36,-24.31 -6.35,-6.35 -14.1,-9.54 -23.02,-9.54 -9.22,0 -16.74,3.12 -22.98,9.54 -6.24,6.24 -9.4,14.43 -9.4,24.31 0,9.87 3.12,18.1 9.32,24.3l0 0zm-260.96 21.19l-54.48 0 0 -91.12 54.48 0 0 13.73 -40.24 0 0 25.04 36.31 0 0 13.59 -36.31 0 0 25.03 40.24 0 0 13.73zm47.91 0.15l-14.21 0 0 -77.54 -24.71 0 0 -13.73 63.62 0 0 13.73 -24.71 0 0 77.54zm79.85 0l-14.21 0 0 -91.27 14.21 0 0 91.27zm50.55 0l-14.24 0 0 -77.54 -24.71 0 0 -13.73 63.62 0 0 13.73 -24.71 0 0 77.54 0.03 0zm236.37 0l-14.06 0 -43.07 -68.91 0.37 12.41 0 56.47 -14.06 0 0 -91.23 16.05 0 0.44 0.7 40.5 64.91 -0.37 -12.37 0 -53.24 14.21 0 0 91.27zm-527.25 1.94c-13.03,0 -24.34,-4.59 -33.59,-13.65 -9.18,-9.03 -13.84,-20.45 -13.84,-33.93 0,-13.48 4.67,-24.89 13.84,-33.93 9.07,-9.07 20.37,-13.65 33.59,-13.65 6.46,0 12.74,1.28 18.76,3.89 5.91,2.54 10.72,5.98 14.29,10.21l0.88 1.06 -9.95 9.76 -1.03 -1.21c-5.62,-6.68 -13.14,-9.95 -23.09,-9.95 -8.88,0 -16.63,3.16 -23.02,9.39 -6.42,6.28 -9.69,14.51 -9.69,24.46 0,9.95 3.27,18.17 9.69,24.45 6.39,6.24 14.14,9.4 23.02,9.4 9.47,0 17.44,-3.16 23.65,-9.4 3.67,-3.67 5.94,-8.81 6.76,-15.31l-31.91 0 0 -13.73 45.6 0 0.18 1.25c0.33,2.31 0.66,4.7 0.66,6.9 0,12.67 -3.82,22.92 -11.38,30.48 -8.59,8.96 -19.83,13.51 -33.41,13.51zm396.54 0c-13.32,0 -24.56,-4.66 -33.44,-13.84 -8.81,-8.92 -13.73,-21.23 -13.51,-33.78 0,-13.4 4.55,-24.74 13.51,-33.74 8.85,-9.18 20.08,-13.84 33.41,-13.84 13.18,0 24.42,4.66 33.45,13.84 8.96,9.28 13.51,20.63 13.51,33.74 -0.15,13.44 -4.7,24.78 -13.51,33.74 -8.85,9.26 -20.08,13.88 -33.41,13.88z"/>
 </g>
</svg>
