<?xml version="1.0" encoding="UTF-8"?>
<!DOCTYPE svg PUBLIC "-//W3C//DTD SVG 1.0//EN" "http://www.w3.org/TR/2001/REC-SVG-20010904/DTD/svg10.dtd">
<!-- Creator: CorelDRAW 2018 (64-Bit) -->
<svg xmlns="http://www.w3.org/2000/svg" xml:space="preserve" width="15.8499mm" height="15.8499mm" version="1.0" style="shape-rendering:geometricPrecision; text-rendering:geometricPrecision; image-rendering:optimizeQuality; fill-rule:evenodd; clip-rule:evenodd"
viewBox="0 0 130.26 130.26"
 xmlns:xlink="http://www.w3.org/1999/xlink">
 <defs>
  <style type="text/css">
   <![CDATA[
    .fil1 {fill:white}
    .fil0 {fill:url(#id0)}
   ]]>
  </style>
  <linearGradient id="id0" gradientUnits="userSpaceOnUse" x1="-52.1" y1="58.62" x2="65.13" y2="188.88">
   <stop offset="0" style="stop-opacity:1; stop-color:#3142C6"/>
   <stop offset="1" style="stop-opacity:1; stop-color:#AF61D1"/>
  </linearGradient>
 </defs>
 <g id="Layer_x0020_1">
  <metadata id="CorelCorpID_0Corel-Layer"/>
  <rect class="fil0" x="-0" y="-0" width="130.26" height="130.26" rx="30.73" ry="30.73"/>
  <path class="fil1" d="M98.25 50.01l-66.24 0c-1.52,0 -2.76,-1.23 -2.76,-2.75l0 -23.36c0,-1.52 1.24,-2.75 2.76,-2.75l12.42 0c1.52,0 2.76,1.23 2.76,2.75l0 8.25 6.9 0 0 -8.25c0,-1.52 1.24,-2.75 2.76,-2.75l16.56 0c1.52,0 2.76,1.23 2.76,2.75l0 8.25 6.9 0 0 -8.25c0,-1.52 1.24,-2.75 2.76,-2.75l12.42 0c1.52,0 2.76,1.23 2.76,2.75l0 23.36c0,1.52 -1.24,2.75 -2.76,2.75zm-60.72 8.25l0 -2.75c0,-0.75 0.62,-1.37 1.39,-1.37l52.41 0c0.77,0 1.39,0.62 1.39,1.37l0 2.75c-4.95,0 -9.38,2.16 -12.42,5.58 -3.04,-3.42 -7.48,-5.58 -12.42,-5.58l-5.51 0c-4.95,0 -9.39,2.16 -12.42,5.58 -3.04,-3.42 -7.47,-5.58 -12.42,-5.58zm56.58 4.12c-5.76,0 -10.84,2.93 -13.8,7.37 -2.97,-4.44 -8.04,-7.37 -13.8,-7.37l-2.75 0c-5.76,0 -10.83,2.93 -13.8,7.37 -2.97,-4.44 -8.04,-7.37 -13.8,-7.37 -1.52,0 -2.76,1.23 -2.76,2.75l0 41.23c0,1.52 1.24,2.75 2.76,2.75l13.8 0 0 0c1.52,-0 2.76,-1.23 2.76,-2.75l0 -27.49c0,-6.07 4.94,-11 11.04,-11l2.75 0c6.1,0 11.04,4.92 11.04,11l0 27.49c0,1.52 1.24,2.75 2.76,2.75l13.8 0c1.52,0 2.76,-1.23 2.76,-2.75l0 -41.23c0,-1.52 -1.24,-2.75 -2.76,-2.75zm-11.04 32.86l7.96 -6.17c0.1,-0.08 0.21,-0.15 0.32,-0.21l0 -6.81 -8.28 6.42 0 6.78zm7.96 -19.91l-7.96 6.17 0 -2.63c0,-4.04 2.18,-7.56 5.44,-9.48 1.64,-0.96 2.84,-1.24 2.84,-1.24l0 6.96c-0.11,0.06 -0.22,0.13 -0.32,0.21zm-7.96 26.88l0 1.4 8.28 0 0 -7.82 -8.28 6.42zm-43.84 -13.13c-0.1,-0.08 -0.21,-0.15 -0.31,-0.21l0 -6.81 8.28 6.42 0 6.78 -7.97 -6.17zm-0.31 -13.95c0.11,0.06 0.21,0.13 0.31,0.21l7.97 6.17 0 -2.63c0,-5.13 -3.53,-9.44 -8.28,-10.66l0 6.9zm0 28.49l0 -7.82 8.28 6.42 0 1.4 -8.28 0z"/>
 </g>
</svg>
