<?xml version="1.0" encoding="UTF-8"?>
<!DOCTYPE svg PUBLIC "-//W3C//DTD SVG 1.1//EN" "http://www.w3.org/Graphics/SVG/1.1/DTD/svg11.dtd">
<!-- Creator: CorelDRAW 2018 (64-Bit) -->
<svg xmlns="http://www.w3.org/2000/svg" xml:space="preserve" width="10.2111mm" height="10.3188mm" version="1.1" style="shape-rendering:geometricPrecision; text-rendering:geometricPrecision; image-rendering:optimizeQuality; fill-rule:evenodd; clip-rule:evenodd"
viewBox="0 0 87.44 88.36"
 xmlns:xlink="http://www.w3.org/1999/xlink">
 <defs>
  <style type="text/css">
   <![CDATA[
    .fil0 {fill:#575445}
   ]]>
  </style>
 </defs>
 <g id="Layer_x0020_1">
  <metadata id="CorelCorpID_0Corel-Layer"/>
  <path class="fil0" d="M43.72 0c24.11,0 43.72,19.82 43.72,44.18 0,24.36 -19.61,44.18 -43.72,44.18 -24.11,0 -43.72,-19.82 -43.72,-44.18 0,-24.36 19.61,-44.18 43.72,-44.18zm0 5c-21.38,0 -38.77,17.57 -38.77,39.18 0,21.6 17.39,39.18 38.77,39.18 21.38,0 38.77,-17.57 38.77,-39.18 0,-21.6 -17.39,-39.18 -38.77,-39.18zm2.47 8.5c0,7.71 6.2,13.97 13.83,13.97l0 5c-5.47,0 -10.39,-2.39 -13.83,-6.18l0 2.78c0,7.71 6.2,13.97 13.83,13.97l0 5c-5.47,0 -10.39,-2.39 -13.83,-6.18l0 2.78c0,7.71 6.2,13.97 13.83,13.97l0 5c-5.47,0 -10.39,-2.39 -13.83,-6.18l0 17.41 -4.95 0 0 -17.4c-3.43,3.79 -8.35,6.18 -13.83,6.18l0 -5c7.63,0 13.83,-6.27 13.83,-13.97l0 -2.78c-3.43,3.79 -8.35,6.18 -13.83,6.18l0 -5c7.63,0 13.83,-6.27 13.83,-13.97l0 -2.78c-3.43,3.79 -8.35,6.18 -13.83,6.18l0 -5c7.63,0 13.83,-6.27 13.83,-13.97l4.95 0z"/>
 </g>
</svg>
