<?xml version="1.0" encoding="UTF-8"?>
<!DOCTYPE svg PUBLIC "-//W3C//DTD SVG 1.1//EN" "http://www.w3.org/Graphics/SVG/1.1/DTD/svg11.dtd">
<!-- Creator: CorelDRAW 2018 (64-Bit) -->
<svg xmlns="http://www.w3.org/2000/svg" xml:space="preserve" width="1.3559mm" height="1.2731mm" version="1.1" style="shape-rendering:geometricPrecision; text-rendering:geometricPrecision; image-rendering:optimizeQuality; fill-rule:evenodd; clip-rule:evenodd"
viewBox="0 0 3.08 2.89"
 xmlns:xlink="http://www.w3.org/1999/xlink">
 <defs>
  <style type="text/css">
   <![CDATA[
    .fil1 {fill:#99521E;fill-rule:nonzero}
    .fil0 {fill:#FEFEFE;fill-opacity:0.501961}
   ]]>
  </style>
 </defs>
 <g id="Layer_x0020_1">
  <metadata id="CorelCorpID_0Corel-Layer"/>
  <path class="fil0" d="M0.47 0l2.15 0c0.16,0 0.3,0.13 0.3,0.3l0 2.3c0,0.16 -0.13,0.3 -0.3,0.3l-2.15 0c-0.16,0 -0.3,-0.13 -0.3,-0.3l0 -2.3c0,-0.16 0.13,-0.3 0.3,-0.3z"/>
  <g id="_2009876781392">
   <path class="fil1" d="M1.76 2.6l0 -0 -0.09 -0.03c-0.16,-0.05 -0.31,-0.07 -0.46,-0.07 -0.03,0 -0.07,0 -0.1,0.01 -0.15,0.02 -0.22,0.08 -0.22,0.16 -0,0.1 0.1,0.15 0.31,0.15 0.09,0 0.19,-0.02 0.29,-0.05 0.07,-0.03 0.14,-0.06 0.2,-0.1l0.07 -0.06zm0.14 -0.18c0.05,-0.09 0.1,-0.24 0.17,-0.47 0.05,-0.16 0.08,-0.28 0.11,-0.37 0.04,-0.13 0.09,-0.25 0.15,-0.37 0.12,-0.26 0.27,-0.44 0.44,-0.53 0.04,-0.02 0.09,-0.04 0.14,-0.04 0.12,0 0.18,0.09 0.18,0.27 -0,0.07 -0.02,0.17 -0.05,0.29 -0.05,0.17 -0.08,0.26 -0.1,0.28 -0.01,0.01 -0.02,0.01 -0.03,0.01l-0.07 0.02 -0.02 0 -0.01 -0.01 0 -0.02 0.1 -0.25c0.03,-0.07 0.05,-0.14 0.07,-0.22 0.02,-0.07 0.03,-0.12 0.03,-0.17 0,-0.09 -0.03,-0.14 -0.09,-0.13 -0.03,0 -0.06,0.01 -0.08,0.03 -0.1,0.07 -0.19,0.17 -0.26,0.31 -0.04,0.08 -0.08,0.16 -0.11,0.25l-0.12 0.35 -0.08 0.26c-0.04,0.13 -0.09,0.25 -0.13,0.36 -0.03,0.08 -0.07,0.15 -0.12,0.21l-0.05 0.06 0 -0 0.12 0.04c0.11,0.04 0.19,0.07 0.24,0.08 0.05,0.01 0.11,0.03 0.17,0.04l0.1 0.02 0.03 0.01 -0.01 0.03 -0.06 0.09 -0.02 0.02 -0.01 0.01 -0.02 -0 -0.08 -0.02c-0.09,-0.02 -0.18,-0.05 -0.26,-0.08 -0.07,-0.02 -0.14,-0.05 -0.22,-0.09l-0.07 -0.03 -0 0 -0.05 0.04c-0.08,0.06 -0.16,0.11 -0.25,0.15 -0.11,0.04 -0.22,0.06 -0.34,0.06 -0.09,0 -0.18,-0.02 -0.26,-0.05 -0.1,-0.04 -0.15,-0.11 -0.15,-0.19 -0,-0.12 0.07,-0.2 0.21,-0.24 0.07,-0.02 0.15,-0.04 0.23,-0.04 0.14,0 0.31,0.03 0.51,0.09l0.1 0.03 -0 0 0.04 -0.07z"/>
   <path class="fil1" d="M0.95 1.97l0 -0 -0.09 -0.03c-0.16,-0.05 -0.32,-0.07 -0.46,-0.07 -0.03,0 -0.07,0 -0.1,0.01 -0.15,0.02 -0.22,0.08 -0.22,0.16 -0,0.1 0.1,0.15 0.31,0.15 0.1,0 0.19,-0.02 0.29,-0.05 0.07,-0.03 0.14,-0.06 0.2,-0.1l0.07 -0.06zm0.14 -0.18c0.05,-0.09 0.1,-0.24 0.17,-0.46 0.05,-0.16 0.08,-0.28 0.11,-0.37 0.04,-0.13 0.09,-0.25 0.15,-0.37 0.12,-0.26 0.27,-0.44 0.44,-0.53 0.04,-0.02 0.09,-0.04 0.14,-0.04 0.12,0 0.18,0.09 0.18,0.27 -0,0.07 -0.02,0.17 -0.05,0.29 -0.05,0.17 -0.08,0.26 -0.1,0.28 -0.01,0.01 -0.02,0.01 -0.03,0.01l-0.07 0.02 -0.02 0 -0.01 -0.01 0 -0.02 0.1 -0.25c0.03,-0.07 0.05,-0.14 0.07,-0.22 0.02,-0.07 0.03,-0.12 0.03,-0.17 0,-0.09 -0.03,-0.14 -0.09,-0.13 -0.03,0 -0.06,0.01 -0.08,0.03 -0.1,0.07 -0.19,0.17 -0.26,0.31 -0.04,0.08 -0.08,0.16 -0.11,0.25l-0.12 0.35 -0.08 0.26c-0.04,0.13 -0.09,0.25 -0.13,0.36 -0.03,0.08 -0.07,0.15 -0.12,0.21l-0.05 0.06 0 -0 0.12 0.04c0.11,0.04 0.19,0.07 0.24,0.08 0.05,0.01 0.11,0.03 0.17,0.04l0.1 0.02 0.03 0.01 -0.01 0.03 -0.06 0.09 -0.02 0.02 -0.01 0.01 -0.02 -0 -0.08 -0.02c-0.09,-0.02 -0.18,-0.05 -0.26,-0.08 -0.07,-0.02 -0.14,-0.05 -0.22,-0.09l-0.07 -0.03 -0 0 -0.05 0.04c-0.08,0.06 -0.16,0.11 -0.25,0.15 -0.11,0.04 -0.22,0.06 -0.34,0.06 -0.1,0 -0.18,-0.02 -0.26,-0.05 -0.1,-0.04 -0.15,-0.11 -0.15,-0.19 -0,-0.12 0.07,-0.2 0.21,-0.24 0.07,-0.02 0.15,-0.04 0.23,-0.04 0.14,0 0.31,0.03 0.51,0.09l0.1 0.03 -0 0 0.04 -0.07z"/>
  </g>
 </g>
</svg>
